<?xml version="1.0" encoding="UTF-8"?>
<svg xmlns="http://www.w3.org/2000/svg" xmlns:xlink="http://www.w3.org/1999/xlink" width="250px" height="40px" viewBox="0 0 250 40" version="1.1">
<defs>
<clipPath id="clip1">
  <path d="M 240 7 L 249.675781 7 L 249.675781 13 L 240 13 Z M 240 7 "/>
</clipPath>
<linearGradient id="linear0" gradientUnits="userSpaceOnUse" x1="24.3932" y1="26.6681" x2="5.13458" y2="2.17824" gradientTransform="matrix(1.25,0,0,1.25,0,0)">
<stop offset="0" style="stop-color:rgb(0%,0%,54.509804%);stop-opacity:1;"/>
<stop offset="1" style="stop-color:rgb(10.196078%,41.568627%,100%);stop-opacity:1;"/>
</linearGradient>
</defs>
<g id="surface1">
<path style=" stroke:none;fill-rule:nonzero;fill:rgb(6.27451%,10.980392%,18.431373%);fill-opacity:1;" d="M 80.175781 19.929688 C 80.175781 26.027344 76.664062 32.628906 67.246094 32.628906 C 60.460938 32.628906 54.269531 28.839844 54.269531 19.929688 C 54.269531 12.542969 58.933594 6.863281 68.167969 7.371094 C 78.003906 7.921875 80.175781 15.542969 80.175781 19.929688 Z M 62.628906 15.292969 C 61.753906 16.644531 61.425781 18.265625 61.425781 19.890625 C 61.425781 23.628906 63.273438 27.015625 67.246094 27.015625 C 71.214844 27.015625 72.96875 23.898438 72.96875 20.203125 C 72.96875 17.589844 72.324219 15.5625 70.984375 14.296875 C 69.507812 12.949219 67.847656 12.902344 66.828125 12.992188 C 64.792969 13.128906 63.597656 13.800781 62.625 15.289062 L 62.628906 15.289062 Z M 62.628906 15.292969 "/>
<path style=" stroke:none;fill-rule:nonzero;fill:rgb(6.27451%,10.980392%,18.431373%);fill-opacity:1;" d="M 143.226562 10.09375 C 143.921875 9.355469 144.378906 8.804688 145.625 8.203125 C 146.734375 7.742188 148.304688 7.371094 150.011719 7.371094 C 151.445312 7.371094 153.054688 7.601562 154.308594 8.292969 C 156.851562 9.632812 157.496094 11.804688 157.496094 15.542969 L 157.496094 32.027344 L 150.429688 32.027344 L 150.429688 18.453125 C 150.429688 16.28125 150.386719 15.496094 150.109375 14.851562 C 149.558594 13.558594 148.308594 13.003906 146.921875 13.003906 C 143.183594 13.003906 143.183594 16.003906 143.183594 19.003906 L 143.183594 32.027344 L 136.070312 32.027344 L 136.070312 7.972656 L 143.226562 7.972656 L 143.226562 10.097656 Z M 143.226562 10.09375 "/>
<path style=" stroke:none;fill-rule:nonzero;fill:rgb(6.27451%,10.980392%,18.431373%);fill-opacity:1;" d="M 132.691406 25.800781 C 132.039062 27.171875 129.941406 32.628906 120.683594 32.628906 C 113.527344 32.628906 108.492188 28.25 108.492188 20.355469 C 108.492188 14.539062 111.355469 7.371094 120.871094 7.371094 C 122.300781 7.371094 126.457031 7.195312 129.550781 10.519531 C 132.691406 13.894531 132.875 18.601562 132.96875 21.324219 L 115.746094 21.324219 C 115.703125 24.324219 117.410156 27.328125 121.242188 27.328125 C 125.074219 27.328125 126.457031 24.785156 127.335938 23.078125 L 132.695312 25.800781 Z M 125.625 16.890625 C 125.488281 15.871094 125.304688 14.53125 124.285156 13.472656 C 123.410156 12.597656 122.070312 12.132812 120.824219 12.132812 C 119.121094 12.132812 117.917969 12.964844 117.222656 13.703125 C 116.253906 14.761719 116.019531 15.871094 115.789062 16.890625 Z M 125.625 16.890625 "/>
<path style=" stroke:none;fill-rule:nonzero;fill:rgb(6.27451%,10.980392%,18.431373%);fill-opacity:1;" d="M 231.574219 12.964844 L 236.289062 12.964844 L 236.289062 7.972656 L 231.625 7.972656 L 231.625 2.902344 L 224.558594 2.902344 L 224.558594 7.972656 L 223.4375 7.972656 L 220.203125 12.96875 L 224.558594 12.96875 L 224.558594 24.414062 C 224.558594 26.71875 224.605469 28.429688 225.578125 29.863281 C 227.101562 32.078125 229.78125 32.21875 232.226562 32.21875 C 233.515625 32.21875 234.441406 32.082031 235.964844 31.847656 L 235.964844 26.304688 L 233.421875 26.398438 C 231.53125 26.398438 231.53125 25.152344 231.574219 23.675781 Z M 231.574219 12.964844 "/>
<path style=" stroke:none;fill-rule:nonzero;fill:rgb(6.27451%,10.980392%,18.431373%);fill-opacity:1;" d="M 161.035156 2.902344 L 168.097656 2.902344 L 168.097656 7.972656 L 175.441406 7.972656 L 172.203125 12.96875 L 168.046875 12.96875 L 168.046875 23.675781 C 168.003906 25.152344 168.003906 26.398438 169.894531 26.398438 L 172.4375 26.304688 L 172.4375 31.847656 C 170.914062 32.078125 169.988281 32.21875 168.699219 32.21875 C 166.25 32.21875 163.570312 32.082031 162.050781 29.863281 C 161.082031 28.429688 161.035156 26.726562 161.035156 24.414062 Z M 161.035156 2.902344 "/>
<g clip-path="url(#clip1)" clip-rule="nonzero">
<path style=" stroke:none;fill-rule:nonzero;fill:rgb(6.27451%,10.980392%,18.431373%);fill-opacity:1;" d="M 242.832031 12.964844 L 241.957031 12.964844 L 241.957031 8.703125 L 240.34375 8.703125 L 240.34375 7.964844 L 244.40625 7.964844 L 244.40625 8.703125 L 242.828125 8.703125 L 242.828125 12.964844 Z M 249.675781 12.964844 L 248.820312 12.964844 L 248.847656 9.878906 L 248.890625 8.859375 L 248.648438 9.699219 L 247.628906 12.964844 L 246.84375 12.964844 L 245.839844 9.699219 L 245.582031 8.875 L 245.640625 9.878906 L 245.675781 12.964844 L 244.832031 12.964844 L 244.832031 7.972656 L 246.019531 7.972656 L 247.265625 11.914062 L 248.484375 7.972656 L 249.671875 7.972656 L 249.671875 12.96875 L 249.675781 12.96875 Z M 249.675781 12.964844 "/>
</g>
<path style=" stroke:none;fill-rule:nonzero;fill:rgb(6.27451%,10.980392%,18.431373%);fill-opacity:1;" d="M 197.703125 25.824219 L 196.351562 27.910156 C 195.085938 29.769531 192.703125 32.628906 185.878906 32.628906 C 179.054688 32.628906 173.910156 28.25 173.910156 20.355469 C 173.910156 14.539062 176.773438 7.371094 186.289062 7.371094 C 187.71875 7.371094 191.875 7.195312 194.96875 10.519531 C 198.109375 13.894531 198.292969 18.601562 198.386719 21.324219 L 181.164062 21.324219 C 181.121094 24.324219 182.601562 27.328125 186.433594 27.328125 C 190.265625 27.328125 191.425781 24.785156 192.308594 23.078125 L 197.707031 25.824219 Z M 191.039062 16.890625 C 190.902344 15.871094 190.714844 14.53125 189.699219 13.472656 C 188.824219 12.597656 187.484375 12.132812 186.238281 12.132812 C 184.53125 12.132812 183.328125 12.964844 182.636719 13.703125 C 181.667969 14.761719 181.433594 15.871094 181.203125 16.890625 Z M 191.039062 16.890625 "/>
<path style=" stroke:none;fill-rule:nonzero;fill:rgb(6.27451%,10.980392%,18.431373%);fill-opacity:1;" d="M 221.914062 32.035156 L 213.078125 19.367188 L 220.441406 7.972656 L 212.355469 7.972656 L 208.878906 13.351562 L 205.128906 7.972656 L 197.042969 7.972656 L 204.992188 19.367188 L 196.808594 32.035156 L 204.894531 32.035156 L 209.191406 25.386719 L 213.828125 32.035156 Z M 221.914062 32.035156 "/>
<path style=" stroke:none;fill-rule:nonzero;fill:rgb(6.27451%,10.980392%,18.431373%);fill-opacity:1;" d="M 89.96875 10.09375 C 90.644531 9.058594 92.828125 7.371094 96.292969 7.371094 C 102.203125 7.371094 106.363281 11.847656 106.363281 19.886719 C 106.363281 24.828125 104.566406 32.628906 95.996094 32.628906 C 92.917969 32.628906 90.53125 30.917969 89.921875 29.90625 L 89.921875 40 L 82.808594 40 L 82.808594 7.972656 L 89.96875 7.972656 L 89.96875 10.097656 Z M 94.765625 12.921875 C 93.476562 12.921875 92.136719 13.433594 91.121094 14.722656 C 90.105469 15.972656 89.644531 17.90625 89.644531 20.011719 C 89.644531 22.847656 90.476562 24.566406 91.351562 25.554688 C 92.171875 26.480469 93.382812 27.007812 94.539062 27.007812 C 98 27.007812 99.523438 23.363281 99.523438 19.835938 C 99.523438 16.875 98.648438 13.734375 95.734375 13.046875 C 95.414062 12.957031 95.089844 12.914062 94.765625 12.914062 Z M 94.765625 12.921875 "/>
<path style=" stroke:none;fill-rule:nonzero;fill:url(#linear0);" d="M 33.421875 0 L 6.585938 0 C 2.953125 0 0.00390625 2.945312 0.00390625 6.582031 L 0.00390625 33.421875 C 0.00390625 37.058594 2.953125 40.003906 6.585938 40.003906 L 33.425781 40.003906 C 37.0625 40.003906 40.011719 37.058594 40.011719 33.421875 L 40.011719 6.582031 C 40.011719 2.945312 37.0625 0 33.425781 0 Z M 33.421875 0 "/>
<path style=" stroke:none;fill-rule:nonzero;fill:rgb(100%,100%,100%);fill-opacity:1;" d="M 28.097656 17.058594 C 28.097656 16.828125 28.289062 16.636719 28.519531 16.636719 L 30.734375 16.636719 C 30.875 16.636719 31.007812 16.566406 31.089844 16.445312 L 32.773438 13.84375 C 32.957031 13.566406 32.753906 13.191406 32.417969 13.191406 L 28.550781 13.191406 C 28.316406 13.191406 28.128906 13 28.128906 12.773438 L 28.128906 10.121094 C 28.128906 9.886719 27.9375 9.695312 27.710938 9.695312 L 23.675781 9.695312 C 23.4375 9.695312 23.253906 9.886719 23.253906 10.113281 L 23.253906 17.496094 C 21.832031 14.765625 18.976562 12.898438 15.691406 12.898438 C 10.984375 12.898438 7.167969 16.714844 7.167969 21.421875 C 7.167969 26.128906 10.984375 29.945312 15.691406 29.945312 C 18.988281 29.945312 21.84375 28.074219 23.265625 25.335938 C 23.285156 26.539062 23.40625 27.484375 23.957031 28.300781 C 25.007812 29.832031 26.855469 29.921875 28.546875 29.921875 C 29.332031 29.921875 29.917969 29.851562 30.765625 29.722656 C 30.972656 29.6875 31.125 29.507812 31.125 29.300781 L 31.125 26.277344 C 31.125 26.035156 30.929688 25.84375 30.6875 25.855469 L 29.375 25.90625 C 28.070312 25.90625 28.101562 25.046875 28.101562 24.023438 L 28.101562 17.058594 Z M 15.691406 25.25 C 13.582031 25.25 11.863281 23.539062 11.863281 21.421875 C 11.863281 19.304688 13.574219 17.59375 15.691406 17.59375 C 17.808594 17.59375 19.519531 19.304688 19.519531 21.421875 C 19.519531 23.539062 17.808594 25.25 15.691406 25.25 Z M 15.691406 25.25 "/>
</g>
</svg>
